<svg xmlns="http://www.w3.org/2000/svg" version="1.1" xmlns:xlink="http://www.w3.org/1999/xlink" xmlns:svgjs="http://svgjs.dev/svgjs" viewBox="0 0 800 800"><defs><linearGradient x1="50%" y1="0%" x2="50%" y2="100%" id="ffflurry-grad" gradientTransform="rotate(270)"><stop stop-color="hsl(238, 82%, 13%)" stop-opacity="1" offset="0%"></stop><stop stop-color="hsl(230, 55%, 50%)" stop-opacity="1" offset="45%"></stop><stop stop-color="hsl(230, 55%, 70%)" stop-opacity="1" offset="100%"></stop></linearGradient></defs><rect width="100%" height="100%" fill="hsl(238, 82%, 13%)"></rect><g fill="url(#ffflurry-grad)"><rect width="133" height="3" x="635.5" y="213.5" rx="1.5" transform="rotate(45, 702, 215)" opacity="0.12"></rect><rect width="568" height="3" x="-184" y="716.5" rx="1.5" transform="rotate(45, 100, 718)" opacity="0.35"></rect><rect width="198" height="3" x="216" y="199.5" rx="1.5" transform="rotate(45, 315, 201)" opacity="0.92"></rect><rect width="432" height="3" x="175" y="562.5" rx="1.5" transform="rotate(45, 391, 564)" opacity="0.16"></rect><rect width="345" height="3" x="108.5" y="528.5" rx="1.5" transform="rotate(45, 281, 530)" opacity="0.22"></rect><rect width="217" height="3" x="-50.5" y="362.5" rx="1.5" transform="rotate(45, 58, 364)" opacity="0.96"></rect><rect width="121" height="3" x="515.5" y="663.5" rx="1.5" transform="rotate(45, 576, 665)" opacity="0.30"></rect><rect width="344" height="3" x="-43" y="598.5" rx="1.5" transform="rotate(45, 129, 600)" opacity="0.62"></rect><rect width="333" height="3" x="599.5" y="466.5" rx="1.5" transform="rotate(45, 766, 468)" opacity="0.40"></rect><rect width="162" height="3" x="60" y="267.5" rx="1.5" transform="rotate(45, 141, 269)" opacity="0.33"></rect><rect width="69" height="3" x="593.5" y="303.5" rx="1.5" transform="rotate(45, 628, 305)" opacity="0.59"></rect><rect width="245" height="3" x="-83.5" y="750.5" rx="1.5" transform="rotate(45, 39, 752)" opacity="0.12"></rect><rect width="469" height="3" x="350.5" y="223.5" rx="1.5" transform="rotate(45, 585, 225)" opacity="0.85"></rect><rect width="68" height="3" x="734" y="199.5" rx="1.5" transform="rotate(45, 768, 201)" opacity="0.86"></rect><rect width="269" height="3" x="240.5" y="34.5" rx="1.5" transform="rotate(45, 375, 36)" opacity="0.80"></rect><rect width="225" height="3" x="85.5" y="455.5" rx="1.5" transform="rotate(45, 198, 457)" opacity="0.12"></rect><rect width="249" height="3" x="513.5" y="590.5" rx="1.5" transform="rotate(45, 638, 592)" opacity="0.31"></rect><rect width="211" height="3" x="390.5" y="697.5" rx="1.5" transform="rotate(45, 496, 699)" opacity="0.72"></rect><rect width="230" height="3" x="336" y="273.5" rx="1.5" transform="rotate(45, 451, 275)" opacity="0.95"></rect><rect width="36" height="3" x="295" y="59.5" rx="1.5" transform="rotate(45, 313, 61)" opacity="0.55"></rect><rect width="190" height="3" x="680" y="689.5" rx="1.5" transform="rotate(45, 775, 691)" opacity="0.85"></rect><rect width="434" height="3" x="217" y="181.5" rx="1.5" transform="rotate(45, 434, 183)" opacity="0.69"></rect><rect width="381" height="3" x="95.5" y="437.5" rx="1.5" transform="rotate(45, 286, 439)" opacity="0.65"></rect><rect width="509" height="3" x="207.5" y="526.5" rx="1.5" transform="rotate(45, 462, 528)" opacity="0.75"></rect><rect width="412" height="3" x="153" y="632.5" rx="1.5" transform="rotate(45, 359, 634)" opacity="0.08"></rect><rect width="286" height="3" x="611" y="609.5" rx="1.5" transform="rotate(45, 754, 611)" opacity="0.59"></rect><rect width="67" height="3" x="21.5" y="104.5" rx="1.5" transform="rotate(45, 55, 106)" opacity="0.65"></rect><rect width="137" height="3" x="708.5" y="766.5" rx="1.5" transform="rotate(45, 777, 768)" opacity="0.63"></rect><rect width="605" height="3" x="242.5" y="523.5" rx="1.5" transform="rotate(45, 545, 525)" opacity="0.86"></rect><rect width="180" height="3" x="647" y="299.5" rx="1.5" transform="rotate(45, 737, 301)" opacity="0.81"></rect><rect width="428" height="3" x="-98" y="483.5" rx="1.5" transform="rotate(45, 116, 485)" opacity="0.68"></rect><rect width="104" height="3" x="180" y="636.5" rx="1.5" transform="rotate(45, 232, 638)" opacity="0.50"></rect><rect width="485" height="3" x="515.5" y="387.5" rx="1.5" transform="rotate(45, 758, 389)" opacity="0.79"></rect><rect width="461" height="3" x="241.5" y="616.5" rx="1.5" transform="rotate(45, 472, 618)" opacity="0.19"></rect><rect width="343" height="3" x="78.5" y="47.5" rx="1.5" transform="rotate(45, 250, 49)" opacity="0.35"></rect><rect width="95" height="3" x="454.5" y="388.5" rx="1.5" transform="rotate(45, 502, 390)" opacity="0.55"></rect><rect width="72" height="3" x="161" y="160.5" rx="1.5" transform="rotate(45, 197, 162)" opacity="0.23"></rect><rect width="695" height="3" x="223.5" y="47.5" rx="1.5" transform="rotate(45, 571, 49)" opacity="0.57"></rect><rect width="338" height="3" x="516" y="348.5" rx="1.5" transform="rotate(45, 685, 350)" opacity="0.46"></rect><rect width="235" height="3" x="266.5" y="394.5" rx="1.5" transform="rotate(45, 384, 396)" opacity="0.91"></rect><rect width="57" height="3" x="355.5" y="690.5" rx="1.5" transform="rotate(45, 384, 692)" opacity="0.16"></rect><rect width="216" height="3" x="226" y="552.5" rx="1.5" transform="rotate(45, 334, 554)" opacity="0.17"></rect><rect width="170" height="3" x="59" y="46.5" rx="1.5" transform="rotate(45, 144, 48)" opacity="0.58"></rect><rect width="71" height="3" x="613.5" y="747.5" rx="1.5" transform="rotate(45, 649, 749)" opacity="0.24"></rect><rect width="217" height="3" x="246.5" y="308.5" rx="1.5" transform="rotate(45, 355, 310)" opacity="0.83"></rect><rect width="301" height="3" x="296.5" y="771.5" rx="1.5" transform="rotate(45, 447, 773)" opacity="0.65"></rect><rect width="487" height="3" x="431.5" y="456.5" rx="1.5" transform="rotate(45, 675, 458)" opacity="0.26"></rect><rect width="620" height="3" x="-110" y="548.5" rx="1.5" transform="rotate(45, 200, 550)" opacity="0.20"></rect><rect width="371" height="3" x="570.5" y="70.5" rx="1.5" transform="rotate(45, 756, 72)" opacity="0.35"></rect><rect width="276" height="3" x="-91" y="248.5" rx="1.5" transform="rotate(45, 47, 250)" opacity="0.80"></rect><rect width="282" height="3" x="562" y="675.5" rx="1.5" transform="rotate(45, 703, 677)" opacity="0.90"></rect><rect width="79" height="3" x="743.5" y="293.5" rx="1.5" transform="rotate(45, 783, 295)" opacity="0.43"></rect><rect width="342" height="3" x="261" y="709.5" rx="1.5" transform="rotate(45, 432, 711)" opacity="0.96"></rect><rect width="487" height="3" x="102.5" y="763.5" rx="1.5" transform="rotate(45, 346, 765)" opacity="0.54"></rect><rect width="201" height="3" x="206.5" y="695.5" rx="1.5" transform="rotate(45, 307, 697)" opacity="0.40"></rect><rect width="497" height="3" x="-79.5" y="679.5" rx="1.5" transform="rotate(45, 169, 681)" opacity="0.32"></rect><rect width="110" height="3" x="670" y="756.5" rx="1.5" transform="rotate(45, 725, 758)" opacity="0.78"></rect><rect width="160" height="3" x="468" y="154.5" rx="1.5" transform="rotate(45, 548, 156)" opacity="0.13"></rect><rect width="66" height="3" x="218" y="293.5" rx="1.5" transform="rotate(45, 251, 295)" opacity="0.17"></rect><rect width="168" height="3" x="-43" y="447.5" rx="1.5" transform="rotate(45, 41, 449)" opacity="0.27"></rect><rect width="75" height="3" x="320.5" y="119.5" rx="1.5" transform="rotate(45, 358, 121)" opacity="0.67"></rect><rect width="190" height="3" x="637" y="536.5" rx="1.5" transform="rotate(45, 732, 538)" opacity="0.70"></rect><rect width="307" height="3" x="85.5" y="714.5" rx="1.5" transform="rotate(45, 239, 716)" opacity="0.41"></rect><rect width="225" height="3" x="145.5" y="771.5" rx="1.5" transform="rotate(45, 258, 773)" opacity="0.29"></rect><rect width="655" height="3" x="265.5" y="432.5" rx="1.5" transform="rotate(45, 593, 434)" opacity="0.90"></rect><rect width="44" height="3" x="266" y="607.5" rx="1.5" transform="rotate(45, 288, 609)" opacity="0.60"></rect><rect width="382" height="3" x="346" y="294.5" rx="1.5" transform="rotate(45, 537, 296)" opacity="0.46"></rect><rect width="48" height="3" x="636" y="155.5" rx="1.5" transform="rotate(45, 660, 157)" opacity="0.78"></rect><rect width="521" height="3" x="404.5" y="55.5" rx="1.5" transform="rotate(45, 665, 57)" opacity="0.24"></rect><rect width="248" height="3" x="430" y="760.5" rx="1.5" transform="rotate(45, 554, 762)" opacity="0.97"></rect><rect width="526" height="3" x="-220" y="637.5" rx="1.5" transform="rotate(45, 43, 639)" opacity="0.97"></rect><rect width="354" height="3" x="-12" y="765.5" rx="1.5" transform="rotate(45, 165, 767)" opacity="0.70"></rect><rect width="666" height="3" x="151" y="87.5" rx="1.5" transform="rotate(45, 484, 89)" opacity="0.13"></rect><rect width="237" height="3" x="325.5" y="36.5" rx="1.5" transform="rotate(45, 444, 38)" opacity="0.64"></rect><rect width="102" height="3" x="350" y="473.5" rx="1.5" transform="rotate(45, 401, 475)" opacity="0.79"></rect><rect width="416" height="3" x="-166" y="541.5" rx="1.5" transform="rotate(45, 42, 543)" opacity="0.79"></rect><rect width="505" height="3" x="-75.5" y="373.5" rx="1.5" transform="rotate(45, 177, 375)" opacity="0.40"></rect></g></svg>